<?xml version="1.0" encoding="UTF-8"?>
<svg xmlns="http://www.w3.org/2000/svg" id="Layer_1" data-name="Layer 1" viewBox="0 0 24 24">
  <path d="M19.949,5.536l-3.484-3.486c-1.323-1.322-3.081-2.05-4.95-2.05H7C4.243,0,2,2.243,2,5v14c0,2.757,2.243,5,5,5h10c2.757,0,5-2.243,5-5V10.485c0-1.871-.729-3.628-2.051-4.95Zm-1.414,1.415c.315,.315,.564,.674,.781,1.05h-4.316c-.552,0-1-.449-1-1V2.684c.376,.217,.735,.466,1.051,.781l3.484,3.486Zm1.465,12.05c0,1.654-1.346,3-3,3H7c-1.654,0-3-1.346-3-3V5c0-1.654,1.346-3,3-3h4.515c.165,0,.323,.032,.485,.047V7c0,1.654,1.346,3,3,3h4.953c.016,.162,.047,.32,.047,.485v8.515Zm-2-1c0,.552-.447,1-1,1H7c-.553,0-1-.448-1-1s.447-1,1-1h10c.553,0,1,.448,1,1ZM7,9c0-1.105,.895-2,2-2s2,.895,2,2-.895,2-2,2-2-.895-2-2Zm-.559,5.794c-.438-.335-.521-.963-.186-1.402,.109-.143,1.113-1.392,2.77-1.392s2.659,1.25,2.769,1.392c.336,.438,.253,1.066-.186,1.402-.182,.139-.396,.206-.607,.206-.301,0-.598-.135-.795-.392,0,0-.497-.608-1.181-.608s-1.177,.602-1.182,.608c-.336,.439-.962,.523-1.402,.186Z"/>
</svg>
